<?xml version="1.0" encoding="UTF-8"?>
<svg width="55px" height="45px" viewBox="0 0 55 45" version="1.1" xmlns="http://www.w3.org/2000/svg" xmlns:xlink="http://www.w3.org/1999/xlink">
    <!-- Generator: Sketch 59.1 (86144) - https://sketch.com -->
    <title>web / tabicon / delete</title>
    <desc>Created with Sketch.</desc>
    <g id="web-/-tabicon-/-delete" stroke="none" stroke-width="1" fill="none" fill-rule="evenodd">
        <path d="M36.0323903,33.3845616 L36.8622386,15.9755501 L38.2603526,15.9755501 C38.6662567,15.9755501 39,15.6395389 39,15.2217953 C39,14.8131331 38.6662567,14.4771219 38.2603526,14.4771219 L33.00164,14.4771219 L33.00164,12.6608453 C33.00164,11.0625218 31.9102091,10 30.1873719,10 L25.7945879,10 C24.0807708,10 22.9893399,11.0625218 22.9893399,12.6608453 L22.9893399,14.4771219 L17.7486675,14.4771219 C17.3427634,14.4771219 17,14.8222145 17,15.2217953 C17,15.6395389 17.3427634,15.9755501 17.7486675,15.9755501 L19.1467815,15.9755501 L19.9856499,33.393643 C20.0578106,34.9556409 21.1312013,36 22.7097171,36 L33.3083231,36 C34.8597786,36 35.9512095,34.9465596 36.0323903,33.3845616 Z M24.5768758,12.7516591 C24.5768758,12.0251484 25.1090611,11.4893468 25.902829,11.4893468 L30.0881509,11.4893468 C30.8819188,11.4893468 31.4231242,12.0251484 31.4231242,12.7516591 L31.4231242,14.4771219 L24.5768758,14.4771219 L24.5768758,12.7516591 Z M22.8450185,34.4924904 C22.1324313,34.4924904 21.5731857,33.938526 21.5371054,33.2210968 L20.698237,15.9755501 L35.2747027,15.9755501 L34.4719147,33.2210968 C34.4358344,33.9476074 33.8946289,34.4924904 33.1640016,34.4924904 L22.8450185,34.4924904 Z M31.4682247,32.2857143 C31.8109881,32.2857143 32.0635506,32.0132728 32.0725707,31.6318547 L32.4333743,18.9451624 C32.4423944,18.5728257 32.1898319,18.2731401 31.8470685,18.2731401 C31.5223452,18.2731401 31.2607626,18.5728257 31.2517425,18.936081 L30.8819188,31.6136919 C30.8728987,31.9860286 31.1254613,32.2857143 31.4682247,32.2857143 Z M24.5317753,32.2857143 C24.8835588,32.2857143 25.1361214,31.9860286 25.1271013,31.6136919 L24.7572776,18.936081 C24.7482575,18.5728257 24.4776548,18.2731401 24.1529315,18.2731401 C23.8191882,18.2731401 23.5576056,18.5637443 23.5666257,18.9451624 L23.9454695,31.6318547 C23.9544895,32.0132728 24.198032,32.2857143 24.5317753,32.2857143 Z M28.6178762,31.6227733 C28.6178762,31.9860286 28.3382534,32.2857143 28.00451,32.2857143 C27.6707667,32.2857143 27.3911439,31.9860286 27.3911439,31.6227733 L27.3911439,18.936081 C27.3911439,18.5728257 27.6707667,18.2731401 28.00451,18.2731401 C28.3472735,18.2731401 28.6178762,18.5728257 28.6178762,18.936081 L28.6178762,31.6227733 Z" id="delete" fill="#E5E5EA" fill-rule="nonzero"></path>
    </g>
</svg>